<svg width="39" height="39" viewBox="0 0 39 39" fill="none" xmlns="http://www.w3.org/2000/svg">
<circle cx="19.5" cy="19.5" r="19.5" transform="matrix(-1 0 0 1 39 0)" fill="#EFB7B7"/>
<g clip-path="url(#clip0_138_147)">
<path d="M15.2208 30C15.3362 30.0002 15.4469 29.9546 15.5286 29.8731L25.0915 20.3102C25.2612 20.1405 25.2612 19.8653 25.0915 19.6956L15.5286 10.1327C15.3618 9.96002 15.0867 9.95526 14.914 10.122C14.7413 10.2888 14.7365 10.564 14.9033 10.7367C14.9068 10.7403 14.9103 10.7438 14.914 10.7473L24.1691 20.0025L14.9131 29.2576C14.7431 29.4271 14.7428 29.7024 14.9123 29.8723C14.9941 29.9542 15.1051 30.0002 15.2208 30Z" fill="#F44336"/>
<path d="M15.2208 30C15.3362 30.0002 15.4469 29.9546 15.5286 29.8731L25.0915 20.3102C25.2612 20.1405 25.2612 19.8653 25.0915 19.6956L15.5286 10.1327C15.3618 9.96002 15.0867 9.95526 14.914 10.122C14.7413 10.2888 14.7365 10.564 14.9033 10.7367C14.9068 10.7403 14.9103 10.7438 14.914 10.7473L24.1691 20.0025L14.9131 29.2576C14.7431 29.4271 14.7428 29.7024 14.9123 29.8723C14.9941 29.9542 15.1051 30.0002 15.2208 30Z" fill="black"/>
</g>
<defs>
<clipPath id="clip0_138_147">
<rect width="20" height="20" fill="white" transform="matrix(-1 0 0 1 30 10)"/>
</clipPath>
</defs>
</svg>
