<svg width="25" height="25" viewBox="0 0 25 25" fill="none" xmlns="http://www.w3.org/2000/svg">
<g clip-path="url(#clip0_138_204)">
<path d="M18.0877 0H6.71346C3.0116 0 0 3.0116 0 6.71346V18.0879C0 21.7896 3.0116 24.8012 6.71346 24.8012H18.0879C21.7896 24.8012 24.8012 21.7896 24.8012 18.0879V6.71346C24.8012 3.0116 21.7896 0 18.0877 0V0ZM23.3472 18.0879C23.3472 20.9879 20.9879 23.3472 18.0877 23.3472H6.71346C3.81331 23.3472 1.45395 20.9879 1.45395 18.0879V6.71346C1.45395 3.81331 3.81331 1.45395 6.71346 1.45395H18.0879C20.9879 1.45395 23.3472 3.81331 23.3472 6.71346V18.0879Z" fill="black"/>
<path d="M12.4005 5.61914C8.6612 5.61914 5.61914 8.6612 5.61914 12.4005C5.61914 16.1399 8.6612 19.1819 12.4005 19.1819C16.1399 19.1819 19.1819 16.1399 19.1819 12.4005C19.1819 8.6612 16.1399 5.61914 12.4005 5.61914ZM12.4005 17.728C9.46311 17.728 7.07309 15.3381 7.07309 12.4005C7.07309 9.46311 9.46311 7.07309 12.4005 7.07309C15.3381 7.07309 17.728 9.46311 17.728 12.4005C17.728 15.3381 15.3381 17.728 12.4005 17.728Z" fill="black"/>
<path d="M19.3442 3.21094C18.2391 3.21094 17.3403 4.10991 17.3403 5.21476C17.3403 6.31979 18.2391 7.21876 19.3442 7.21876C20.4492 7.21876 21.3482 6.31979 21.3482 5.21476C21.3482 4.10972 20.4492 3.21094 19.3442 3.21094ZM19.3442 5.76462C19.041 5.76462 18.7943 5.51788 18.7943 5.21476C18.7943 4.91144 19.041 4.66489 19.3442 4.66489C19.6475 4.66489 19.8942 4.91144 19.8942 5.21476C19.8942 5.51788 19.6475 5.76462 19.3442 5.76462Z" fill="black"/>
</g>
<defs>
<clipPath id="clip0_138_204">
<rect width="24.8012" height="24.8012" fill="white"/>
</clipPath>
</defs>
</svg>
