<svg width="25" height="25" viewBox="0 0 25 25" fill="none" xmlns="http://www.w3.org/2000/svg">
<g clip-path="url(#clip0_138_211)">
<path d="M24.0255 7.57424C23.401 6.0975 22.5071 4.77131 21.3685 3.63258C20.2299 2.49383 18.9038 1.5997 17.4271 0.975023C15.898 0.328132 14.2739 9.68799e-05 12.5994 0C10.9257 0 9.30168 0.327938 7.77258 0.974684C6.29591 1.59924 4.96982 2.49325 3.83114 3.63186C2.69247 4.77046 1.79839 6.0965 1.17373 7.57312C0.526863 9.1022 0.198827 10.7262 0.19873 12.3999C0.198634 14.0737 0.526499 15.6978 1.1732 17.227C1.79771 18.7038 2.69169 20.03 3.8303 21.1687C4.9689 22.3074 6.29497 23.2016 7.77166 23.8262C9.30081 24.4731 10.9249 24.8012 12.5993 24.8013H12.5995C14.2732 24.8013 15.8971 24.4733 17.4262 23.8266C18.9029 23.202 20.229 22.308 21.3676 21.1694C22.5063 20.0309 23.4004 18.7048 24.025 17.2282C24.6719 15.6991 24.9999 14.0751 25 12.4014C25.0001 10.7275 24.6722 9.10346 24.0255 7.57424ZM12.5994 23.6466H12.5987C9.59482 23.6465 6.77074 22.4765 4.64675 20.3523C2.52281 18.228 1.35318 15.4039 1.35334 12.4C1.35371 6.19927 6.39865 1.15464 12.6 1.15464C15.6039 1.15481 18.428 2.32475 20.5519 4.44897C22.6759 6.5732 23.8455 9.39737 23.8453 12.4013C23.845 18.602 18.8001 23.6466 12.5994 23.6466Z" fill="black"/>
<path d="M3.94088 9.67179C4.12737 10.1586 4.35724 10.628 4.5945 11.0916C5.15827 12.1931 5.73884 13.2635 6.51725 14.2317C7.30389 15.2101 8.23263 16.1582 9.32667 16.7911C9.63094 16.9672 9.95082 17.1157 10.284 17.2286C11.5696 17.664 12.9796 17.6226 13.415 17.3323C13.8504 17.042 13.3321 15.1343 13.726 14.9062C14.12 14.6781 14.825 15.1758 15.3434 15.632C15.8617 16.0881 16.2557 16.4821 16.546 16.7931C16.7278 16.9879 16.8558 17.2204 17.0928 17.3593C17.4848 17.589 18.0072 17.5636 18.4445 17.5648C18.6882 17.5655 18.9321 17.5663 19.1759 17.5633C19.3407 17.5612 19.5055 17.5666 19.6701 17.5586C19.9407 17.5455 20.2945 17.4387 20.2742 17.1002C20.2694 17.0202 20.2516 16.9244 20.2198 16.8506C20.1515 16.6918 20.0552 16.5271 19.9517 16.3888C19.4127 15.6682 19.055 15.3002 18.7854 15.0098C18.5159 14.7196 17.4065 13.6724 17.334 13.4651C17.2614 13.2577 17.238 13.1657 17.4441 12.8858C17.6502 12.6058 18.1012 11.8996 18.4537 11.3916C18.6748 11.073 18.8756 10.7398 19.074 10.4068C19.308 10.0142 19.528 9.61209 19.7155 9.19512C19.7993 9.00868 19.8754 8.83882 19.8235 8.6299C19.7887 8.48993 19.71 8.36697 19.5634 8.33243C19.4834 8.31359 19.3961 8.31167 19.3142 8.31167C19.0084 8.31167 18.21 8.31167 18.21 8.31167C18.0657 8.31167 17.9214 8.30957 17.7771 8.30983C17.6291 8.3101 17.4799 8.30894 17.3324 8.32158C17.1225 8.33955 16.9939 8.50141 16.8883 8.66461C16.7591 8.8643 16.6416 9.07206 16.5163 9.27427C16.4306 9.41245 16.3468 9.55171 16.2645 9.6919C16.1358 9.91085 16.0033 10.1274 15.8707 10.3441C15.8157 10.4339 15.7605 10.5237 15.7063 10.614C15.5508 10.8732 14.203 12.646 13.9334 12.7186C13.6639 12.7913 13.5706 12.7705 13.5706 12.221C13.5706 11.6715 13.5706 8.55087 13.5706 8.55087C13.5706 8.55087 13.5499 8.31025 13.3218 8.31025C13.0937 8.31025 12.0357 8.31025 12.0357 8.31025H9.85377C9.85377 8.31025 9.34059 8.31238 9.52203 8.77377C9.70346 9.23513 10.24 9.3751 10.24 10.1449C10.24 10.9146 10.24 13.1618 10.24 13.1618C10.24 13.1618 10.1493 13.8383 9.56352 13.2785C9.10191 12.8373 8.72158 12.3157 8.38553 11.7749C8.03613 11.2126 7.75465 10.6285 7.50392 10.0164C7.43221 9.84141 7.36119 9.66608 7.28754 9.49186C7.21067 9.31 7.1345 9.12781 7.06077 8.94466C6.97515 8.73192 6.88355 8.45385 6.65269 8.3559C6.53663 8.30666 6.40826 8.30908 6.28454 8.30911C5.82575 8.30923 5.36697 8.31051 4.9082 8.30964C4.77358 8.3094 4.63897 8.30925 4.50435 8.30959C4.18651 8.31034 3.7912 8.30097 3.7158 8.69803C3.67235 8.92674 3.75872 9.17088 3.83101 9.38508C3.86378 9.48247 3.90421 9.57605 3.94088 9.67179Z" fill="black"/>
</g>
<defs>
<clipPath id="clip0_138_211">
<rect width="24.8012" height="24.8012" fill="white" transform="translate(0.19873)"/>
</clipPath>
</defs>
</svg>
