<svg width="25" height="25" viewBox="0 0 25 25" fill="none" xmlns="http://www.w3.org/2000/svg">
<g clip-path="url(#clip0_138_208)">
<path d="M21.3779 3.52268C19.1062 1.25092 16.0864 0 12.8735 0C12.8733 0 12.8726 0 12.8724 0C11.2833 0.000189218 9.73475 0.307858 8.27001 0.914682C6.80508 1.52151 5.49266 2.39891 4.36889 3.52268C2.09733 5.79425 0.846403 8.81455 0.846403 12.0271C0.846403 13.9429 1.30866 15.8469 2.18456 17.5432L0.162945 23.3185C0.020464 23.7259 0.121317 24.1687 0.426716 24.4739C0.640344 24.6877 0.921522 24.8012 1.21065 24.8012C1.33459 24.8012 1.45985 24.7804 1.58208 24.7377L7.35741 22.7162C9.05375 23.5921 10.9577 24.0544 12.8735 24.0544C16.0861 24.0544 19.1062 22.8033 21.3779 20.5317C23.6495 18.2601 24.9006 15.2398 24.9006 12.0273C24.9006 8.81455 23.6497 5.79425 21.3779 3.52268ZM20.3493 19.5031C18.3525 21.5001 15.6974 22.5997 12.8735 22.5997C11.1459 22.5997 9.42973 22.1724 7.91031 21.3637C7.6348 21.2173 7.30916 21.1921 7.01682 21.2945L1.76979 23.1308L3.60634 17.8838C3.70871 17.5911 3.68336 17.2654 3.5369 16.9901C2.72837 15.4711 2.30092 13.7549 2.30092 12.0271C2.30092 9.20321 3.40066 6.54809 5.39749 4.55127C7.39412 2.55464 10.0489 1.4549 12.8726 1.45452H12.8735C15.6976 1.45452 18.3525 2.55426 20.3493 4.55127C22.3464 6.54809 23.4461 9.20302 23.4461 12.0271C23.4461 14.8512 22.3464 17.5063 20.3493 19.5031Z" fill="black"/>
<path d="M17.3432 13.1015C16.7899 12.5482 15.8896 12.5482 15.3364 13.1015L14.7312 13.7066C13.2287 12.8878 12.0127 11.6719 11.1938 10.1693L11.7989 9.56421C12.3524 9.01094 12.3524 8.11063 11.7989 7.55736L10.1682 5.92667C9.61497 5.3734 8.71467 5.3734 8.16139 5.92667L6.85692 7.23115C6.1097 7.97837 6.07242 9.26298 6.7519 10.8484C7.34189 12.225 8.42157 13.738 9.79208 15.1085C11.1626 16.479 12.6756 17.5587 14.0521 18.1487C14.8054 18.4715 15.4906 18.6325 16.0826 18.6325C16.7368 18.6325 17.2772 18.4359 17.6694 18.0437L18.9739 16.739V16.7392C19.242 16.4711 19.3896 16.1148 19.3896 15.7358C19.3896 15.3566 19.242 15.0003 18.9739 14.7323L17.3432 13.1015ZM16.6408 17.0151C16.4276 17.2283 15.7718 17.3031 14.6253 16.8118C13.4147 16.293 12.0635 15.3227 10.8207 14.0799C9.57788 12.8371 8.60776 11.4861 8.08892 10.2755C7.59752 9.12901 7.67226 8.47299 7.88551 8.25974L9.16501 6.98024L10.7454 8.56079L9.98792 9.31842C9.64543 9.6609 9.56274 10.1803 9.78243 10.611C10.7783 12.5637 12.3369 14.1223 14.2896 15.1182C14.7205 15.3378 15.2399 15.2553 15.5824 14.9127L16.3398 14.1552L17.9203 15.7358L16.6408 17.0151Z" fill="black"/>
</g>
<defs>
<clipPath id="clip0_138_208">
<rect width="24.8012" height="24.8012" fill="white" transform="translate(0.0993652)"/>
</clipPath>
</defs>
</svg>
